<svg width="1241" height="699" viewBox="0 0 1241 699" fill="none" xmlns="http://www.w3.org/2000/svg">
<path d="M0 515.011V652.609H28.7914V515.011H0ZM17.5164 538.796H45.5025C53.1533 538.796 59.1935 540.499 63.6229 543.907C68.0524 547.183 70.2671 552.162 70.2671 558.846C70.2671 565.398 68.0524 570.378 63.6229 573.785C59.1935 577.192 53.1533 578.896 45.5025 578.896H17.5164V602.681H45.5025C56.6432 602.681 66.1061 600.912 73.8912 597.373C81.8105 593.835 87.8507 588.79 92.0116 582.238C96.1726 575.554 98.2531 567.757 98.2531 558.846C98.2531 549.804 96.1726 542.006 92.0116 535.454C87.8507 528.902 81.8105 523.857 73.8912 520.318C66.1061 516.78 56.6432 515.011 45.5025 515.011H17.5164V538.796Z" fill="#32B768"/>
<path d="M118.112 499.285V652.609H144.286V499.285H118.112Z" fill="#32B768"/>
<path d="M188.542 624.5C188.542 621.879 189.146 619.717 190.354 618.013C191.562 616.179 193.442 614.803 195.992 613.885C198.542 612.837 201.831 612.313 205.857 612.313C210.824 612.313 215.522 612.968 219.951 614.278C224.515 615.589 228.609 617.554 232.233 620.175V608.381C230.891 606.809 228.676 605.171 225.589 603.467C222.501 601.763 218.676 600.322 214.112 599.143C209.683 597.963 204.515 597.373 198.609 597.373C187.066 597.373 178.14 599.929 171.831 605.04C165.523 610.15 162.368 617.096 162.368 625.876C162.368 632.035 163.845 637.277 166.798 641.601C169.885 645.795 173.912 649.006 178.878 651.233C183.844 653.461 189.214 654.575 194.985 654.575C200.623 654.575 205.992 653.592 211.092 651.626C216.327 649.661 220.555 646.712 223.777 642.781C227.132 638.849 228.81 634.001 228.81 628.235L225.589 616.441C225.589 620.765 224.582 624.5 222.569 627.645C220.555 630.659 217.938 633.018 214.716 634.722C211.495 636.294 207.871 637.08 203.844 637.08C201.025 637.08 198.408 636.622 195.992 635.704C193.71 634.656 191.898 633.214 190.556 631.38C189.214 629.414 188.542 627.121 188.542 624.5ZM178.475 587.742C179.818 586.824 181.898 585.71 184.717 584.4C187.536 583.089 190.891 581.975 194.784 581.058C198.676 580.141 202.77 579.682 207.066 579.682C209.884 579.682 212.435 579.944 214.716 580.468C216.998 580.993 218.944 581.844 220.555 583.024C222.3 584.203 223.575 585.71 224.381 587.545C225.186 589.249 225.589 591.345 225.589 593.835V652.609H250.756V588.528C250.756 582.369 249.011 577.192 245.521 572.999C242.031 568.674 237.199 565.398 231.025 563.17C224.85 560.943 217.804 559.829 209.884 559.829C201.294 559.829 193.509 561.008 186.529 563.367C179.549 565.595 173.643 567.954 168.811 570.443L178.475 587.742Z" fill="#32B768"/>
<path d="M334.812 597.57V652.609H361.791V594.818C361.791 583.941 359.106 575.489 353.737 569.461C348.368 563.301 340.181 560.222 329.174 560.222C322.597 560.222 316.96 561.598 312.262 564.35C307.698 566.971 304.007 570.837 301.188 575.947V562.188H275.014V652.609H301.188V597.57C301.188 593.77 301.926 590.493 303.403 587.742C304.879 584.99 307.027 582.893 309.846 581.451C312.664 579.879 315.886 579.092 319.51 579.092C324.879 579.092 328.771 580.665 331.187 583.81C333.604 586.955 334.812 591.542 334.812 597.57Z" fill="#32B768"/>
<path d="M375.601 562.188V583.614H432.782V562.188H375.601ZM391.507 530.736V652.609H416.674V530.736H391.507Z" fill="#32B768"/>
<path d="M480.085 575.358L520.957 639.833L561.829 575.358L570.889 652.61H600.888L579.949 508.131L520.957 596.98L461.965 508.131L441.026 652.61H471.025L480.085 575.358Z" fill="#52665A"/>
<path d="M639.588 624.5C639.588 621.879 640.192 619.717 641.4 618.013C642.608 616.179 644.487 614.803 647.037 613.885C649.588 612.837 652.876 612.313 656.903 612.313C661.869 612.313 666.567 612.968 670.997 614.279C675.56 615.589 679.654 617.555 683.278 620.176V608.381C681.936 606.809 679.721 605.171 676.634 603.467C673.547 601.764 669.721 600.322 665.158 599.143C660.728 597.963 655.561 597.374 649.655 597.374C638.111 597.374 629.185 599.929 622.877 605.04C616.568 610.151 613.414 617.096 613.414 625.876C613.414 632.035 614.89 637.277 617.843 641.602C620.93 645.795 624.957 649.006 629.924 651.234C634.89 653.461 640.259 654.575 646.031 654.575C651.668 654.575 657.037 653.592 662.138 651.627C667.373 649.661 671.601 646.712 674.822 642.781C678.178 638.85 679.855 634.001 679.855 628.235L676.634 616.441C676.634 620.765 675.627 624.5 673.614 627.645C671.601 630.659 668.983 633.018 665.762 634.722C662.54 636.294 658.916 637.081 654.89 637.081C652.071 637.081 649.453 636.622 647.037 635.705C644.756 634.656 642.943 633.215 641.601 631.38C640.259 629.414 639.588 627.121 639.588 624.5ZM629.521 587.742C630.863 586.824 632.944 585.71 635.762 584.4C638.581 583.09 641.937 581.976 645.829 581.058C649.722 580.141 653.816 579.682 658.111 579.682C660.93 579.682 663.48 579.944 665.762 580.469C668.044 580.993 669.99 581.845 671.601 583.024C673.346 584.203 674.621 585.71 675.426 587.545C676.231 589.249 676.634 591.345 676.634 593.835V652.61H701.801V588.528C701.801 582.369 700.056 577.192 696.567 572.999C693.077 568.675 688.245 565.398 682.07 563.171C675.896 560.943 668.849 559.829 660.93 559.829C652.339 559.829 644.554 561.008 637.574 563.367C630.595 565.595 624.689 567.954 619.857 570.444L629.521 587.742Z" fill="#52665A"/>
<path d="M785.857 597.57V652.61H812.836V594.818C812.836 583.941 810.152 575.489 804.783 569.461C799.414 563.302 791.226 560.222 780.22 560.222C773.642 560.222 768.005 561.598 763.307 564.35C758.743 566.971 755.052 570.837 752.233 575.948V562.188H726.059V652.61H752.233V597.57C752.233 593.77 752.972 590.494 754.448 587.742C755.925 584.99 758.072 582.893 760.891 581.451C763.71 579.879 766.931 579.093 770.555 579.093C775.924 579.093 779.817 580.665 782.233 583.81C784.649 586.955 785.857 591.542 785.857 597.57Z" fill="#52665A"/>
<path d="M857.049 624.5C857.049 621.879 857.653 619.717 858.861 618.013C860.069 616.179 861.948 614.803 864.499 613.885C867.049 612.837 870.337 612.313 874.364 612.313C879.33 612.313 884.028 612.968 888.458 614.279C893.021 615.589 897.115 617.555 900.739 620.176V608.381C899.397 606.809 897.182 605.171 894.095 603.467C891.008 601.764 887.183 600.322 882.619 599.143C878.189 597.963 873.022 597.374 867.116 597.374C855.573 597.374 846.647 599.929 840.338 605.04C834.029 610.151 830.875 617.096 830.875 625.876C830.875 632.035 832.351 637.277 835.304 641.602C838.392 645.795 842.418 649.006 847.385 651.234C852.351 653.461 857.72 654.575 863.492 654.575C869.129 654.575 874.498 653.592 879.599 651.627C884.834 649.661 889.062 646.712 892.283 642.781C895.639 638.85 897.317 634.001 897.317 628.235L894.095 616.441C894.095 620.765 893.089 624.5 891.075 627.645C889.062 630.659 886.444 633.018 883.223 634.722C880.002 636.294 876.377 637.081 872.351 637.081C869.532 637.081 866.915 636.622 864.499 635.705C862.217 634.656 860.405 633.215 859.062 631.38C857.72 629.414 857.049 627.121 857.049 624.5ZM846.982 587.742C848.324 586.824 850.405 585.71 853.224 584.4C856.042 583.09 859.398 581.976 863.29 581.058C867.183 580.141 871.277 579.682 875.572 579.682C878.391 579.682 880.941 579.944 883.223 580.469C885.505 580.993 887.451 581.845 889.062 583.024C890.807 584.203 892.082 585.71 892.887 587.545C893.693 589.249 894.095 591.345 894.095 593.835V652.61H919.263V588.528C919.263 582.369 917.518 577.192 914.028 572.999C910.538 568.675 905.706 565.398 899.531 563.171C893.357 560.943 886.31 559.829 878.391 559.829C869.8 559.829 862.015 561.008 855.036 563.367C848.056 565.595 842.15 567.954 837.318 570.444L846.982 587.742Z" fill="#52665A"/>
<path d="M939.091 658.9C939.628 666.762 941.776 673.708 945.534 679.736C949.427 685.895 954.997 690.613 962.245 693.889C969.493 697.296 978.486 699 989.224 699C998.083 699 1006.27 697.296 1013.79 693.889C1021.3 690.613 1027.28 685.371 1031.71 678.163C1036.27 670.956 1038.55 661.783 1038.55 650.644V562.188H1013.39V650.644C1013.39 656.803 1012.18 661.914 1009.76 665.976C1007.48 670.039 1004.39 673.053 1000.5 675.018C996.741 676.984 992.714 677.967 988.419 677.967C983.721 677.967 979.627 677.181 976.137 675.608C972.648 674.036 969.896 671.808 967.883 668.925C965.869 666.173 964.795 662.831 964.661 658.9H939.091ZM937.279 606.612C937.279 616.572 939.36 625.024 943.521 631.97C947.682 638.784 953.185 643.96 960.03 647.499C966.876 651.037 974.124 652.806 981.775 652.806C989.56 652.806 996.406 651.037 1002.31 647.499C1008.35 643.829 1013.05 638.522 1016.41 631.577C1019.89 624.631 1021.64 616.31 1021.64 606.612C1021.64 596.784 1019.89 588.462 1016.41 581.648C1013.05 574.703 1008.35 569.395 1002.31 565.726C996.406 562.057 989.56 560.222 981.775 560.222C974.124 560.222 966.876 561.991 960.03 565.529C953.185 569.068 947.682 574.309 943.521 581.255C939.36 588.069 937.279 596.522 937.279 606.612ZM964.259 606.612C964.259 601.108 965.399 596.522 967.681 592.853C969.963 589.052 973.05 586.169 976.943 584.203C980.835 582.238 984.996 581.255 989.426 581.255C992.379 581.255 995.265 581.845 998.083 583.024C1000.9 584.072 1003.45 585.645 1005.73 587.742C1008.15 589.838 1010.03 592.459 1011.37 595.604C1012.71 598.75 1013.39 602.419 1013.39 606.612C1013.39 612.116 1012.18 616.768 1009.76 620.569C1007.48 624.238 1004.46 627.056 1000.7 629.021C997.077 630.856 993.318 631.773 989.426 631.773C984.996 631.773 980.835 630.79 976.943 628.825C973.05 626.859 969.963 624.041 967.681 620.372C965.399 616.572 964.259 611.985 964.259 606.612Z" fill="#52665A"/>
<path d="M1107.54 654.575C1118.68 654.575 1128.21 652.478 1136.13 648.285C1144.19 643.96 1150.63 637.539 1155.46 629.021L1132.71 622.141C1130.02 626.466 1126.6 629.742 1122.44 631.97C1118.41 634.066 1113.52 635.115 1107.74 635.115C1102.64 635.115 1098.28 634.001 1094.66 631.773C1091.03 629.545 1088.28 626.335 1086.4 622.141C1084.66 617.948 1083.78 612.837 1083.78 606.809C1083.92 600.519 1084.86 595.277 1086.6 591.083C1088.48 586.759 1091.1 583.548 1094.46 581.451C1097.95 579.224 1102.24 578.11 1107.34 578.11C1111.5 578.11 1115.13 579.027 1118.21 580.862C1121.3 582.696 1123.65 585.186 1125.26 588.331C1127 591.477 1127.88 595.277 1127.88 599.732C1127.88 600.65 1127.61 601.829 1127.07 603.271C1126.67 604.581 1126.2 605.629 1125.66 606.416L1132.71 597.374H1072.51V613.099H1155.46C1155.59 612.313 1155.66 611.264 1155.66 609.954C1155.8 608.644 1155.86 607.399 1155.86 606.219C1155.86 596.522 1153.98 588.266 1150.23 581.451C1146.47 574.506 1140.96 569.264 1133.72 565.726C1126.6 562.057 1117.94 560.222 1107.74 560.222C1097.54 560.222 1088.68 562.188 1081.17 566.119C1073.65 569.919 1067.81 575.358 1063.65 582.434C1059.62 589.38 1057.61 597.701 1057.61 607.399C1057.61 616.965 1059.62 625.286 1063.65 632.363C1067.81 639.308 1073.65 644.747 1081.17 648.678C1088.68 652.61 1097.48 654.575 1107.54 654.575Z" fill="#52665A"/>
<path d="M1201.1 562.188H1175.53V652.61H1201.1V562.188ZM1228.28 588.725L1240.16 567.102C1238.28 564.743 1235.8 562.974 1232.71 561.795C1229.76 560.615 1226.6 560.025 1223.25 560.025C1218.42 560.025 1213.72 561.729 1209.16 565.136C1204.59 568.412 1200.9 572.868 1198.08 578.503C1195.26 584.007 1193.85 590.363 1193.85 597.57L1201.1 604.647C1201.1 600.322 1201.64 596.653 1202.71 593.639C1203.92 590.494 1205.67 588.069 1207.95 586.366C1210.23 584.662 1212.98 583.81 1216.2 583.81C1218.89 583.81 1221.1 584.269 1222.85 585.186C1224.73 585.973 1226.54 587.152 1228.28 588.725Z" fill="#52665A"/>
<g clip-path="url(#clip0)">
<path d="M762.385 0.592529C694.071 0.592529 638.494 55.9719 638.494 124.041V136.742H651.241C719.555 136.742 775.132 81.3629 775.132 13.2939V0.592529H762.385Z" fill="#00C063"/>
<path d="M538.089 40.9233H525.343V53.6247C525.343 121.695 580.921 177.074 649.234 177.074H661.981V164.372C661.982 96.3035 606.404 40.9233 538.089 40.9233Z" fill="#00C063"/>
<path d="M754.167 262.783C734.027 240.403 700.319 202.946 658.062 199.447C593.196 194.077 550.689 231.363 548.91 232.952L556.753 241.663H556.754L564.595 250.373C564.668 250.308 566.209 248.956 569.072 246.88L613.811 265.827L656.045 284.892L663.211 319.381L743.666 286.062C744.913 287.386 746.08 288.584 747.164 289.632L763.51 272.826C761.187 270.584 757.934 266.968 754.167 262.783Z" fill="#2B7A4B"/>
<path d="M811.207 287.958C807.166 278.268 799.58 270.728 789.847 266.724C780.113 262.72 769.399 262.733 759.673 266.76L673.234 302.556C673.315 297.333 672.351 292.091 670.326 287.075C666.216 276.895 658.324 269.043 648.102 264.967L568.419 233.185C550.776 226.143 531.385 226.269 513.818 233.542L474.266 249.921L478.774 260.727L478.837 264.959L478.774 265.002L479.445 330.641L475.045 341.492L604.319 393.522C613.15 397.067 622.41 398.839 631.668 398.839C641.19 398.839 650.708 396.966 659.75 393.221L789.933 339.309C799.657 335.281 807.225 327.723 811.243 318.024C815.261 308.325 815.249 297.648 811.207 287.958Z" fill="#F9D5A5"/>
<path d="M479.102 297.08L479.444 296.233L479.08 260.6L478.774 260.727L478.837 264.96L478.774 265.002L479.102 297.08Z" fill="#F9BE77"/>
<path d="M490.519 218.43H413.387V375.457H490.519V218.43Z" fill="#32B768"/>
<path d="M491.302 201.938H467.815V384.218H491.302V201.938Z" fill="white"/>
<path d="M728.204 60.7116L711.227 44.5394L638.495 120.532V136.2L589.249 84.8731L572.271 101.046L638.495 170.068V210.607H661.982V129.732L728.204 60.7116Z" fill="#73E6A1"/>
</g>
<defs>
<clipPath id="clip0">
<rect width="400.86" height="399.428" fill="white" transform="translate(413.387)"/>
</clipPath>
</defs>
</svg>
